<?xml version="1.0" encoding="UTF-8"?>
<svg width="300px" height="140px" viewBox="0 0 300 140" version="1.1" xmlns="http://www.w3.org/2000/svg" xmlns:xlink="http://www.w3.org/1999/xlink">
    <title>i-tunes</title>
    <defs>
        <rect id="path-1" x="0" y="0" width="220" height="60" rx="30"></rect>
        <filter x="-29.5%" y="-91.7%" width="159.1%" height="316.7%" filterUnits="objectBoundingBox" id="filter-2">
            <feOffset dx="0" dy="10" in="SourceAlpha" result="shadowOffsetOuter1"></feOffset>
            <feGaussianBlur stdDeviation="20" in="shadowOffsetOuter1" result="shadowBlurOuter1"></feGaussianBlur>
            <feColorMatrix values="0 0 0 0 0.125490196   0 0 0 0 0.11372549   0 0 0 0 0.156862745  0 0 0 0.06 0" type="matrix" in="shadowBlurOuter1"></feColorMatrix>
        </filter>
    </defs>
    <g id="Page-1" stroke="none" stroke-width="1" fill="none" fill-rule="evenodd">
        <g id="Capital-Turk-01---Home" transform="translate(-318.000000, -2974.000000)">
            <g id="i-tunes" transform="translate(358.000000, 3004.000000)">
                <g id="Rectangle">
                    <use fill="black" fill-opacity="1" filter="url(#filter-2)" xlink:href="#path-1"></use>
                    <use fill="#201D28" fill-rule="evenodd" xlink:href="#path-1"></use>
                </g>
                <path d="M47.3141094,21.5368128 C48.4824846,21.5368128 50.9490545,19.8528893 53.4156244,20.1119545 C54.4541802,20.2414871 57.3102085,20.6300848 59.2575005,23.3502689 C59.1276811,23.4798014 55.7523749,25.42279 55.7523749,29.4382999 C55.7523749,34.2310051 60.0364173,35.785396 60.1662368,35.9149286 C60.1662368,36.0444612 59.5171395,38.2465149 57.9593058,40.4485687 C56.6611111,42.3915573 55.233097,44.334546 53.026166,44.334546 C50.8192351,44.334546 50.1701377,43.0392202 47.7035678,43.0392202 C45.2369979,43.0392202 44.4580811,44.2050134 42.3809696,44.334546 C40.3038581,44.4640785 38.7460245,42.2620248 37.3180103,40.3190361 C34.5918015,36.3035263 32.51469,29.0497021 35.3707183,24.1274643 C36.7987325,21.6663454 39.2653024,20.1119545 41.9915112,20.1119545 C44.0686227,20.1119545 46.0159147,21.5368128 47.3141094,21.5368128 Z M53.4156244,12.34 C53.5454439,14.2829886 52.7665271,16.0964447 51.7279713,17.521303 C50.5595961,18.8166287 48.7421236,19.8528893 47.0544705,19.7233568 C46.7948315,17.9099007 47.7035678,15.9669121 48.7421236,14.8011189 C49.7806793,13.3762606 51.8577908,12.4695326 53.4156244,12.34 Z" id="Combined-Shape" fill="#FFFFFF" fill-rule="nonzero"></path>
                <path d="M98.90164,30.72 C100.445051,30.72 101.707842,31.28 102.690012,32.54 C103.952803,33.66 104.514043,35.2 104.514043,37.3 C104.514043,39.54 103.952803,41.22 102.690012,42.62 C101.567531,43.74 100.304741,44.3 98.6210199,44.3 C97.021485,44.3 95.8018396,43.7946 95.0823822,42.6637675 L94.9729578,42.48 L94.9729578,49.34 L92.0264462,49.34 L92.0264462,35.34 C92.0264462,33.94 92.0264462,32.54 91.8861361,31 L94.4117175,31 L94.5520276,33.1 C95.5341981,31.56 96.9372989,30.72 98.90164,30.72 Z M113.914818,30.72 C115.458229,30.72 116.72102,31.28 117.70319,32.54 C118.965981,33.66 119.527221,35.2 119.527221,37.3 C119.527221,39.54 118.965981,41.22 117.70319,42.62 C116.58071,43.74 115.317919,44.3 113.634198,44.3 C112.034663,44.3 110.815018,43.7946 110.09556,42.6637675 L109.986136,42.48 L109.986136,49.34 L107.039625,49.34 L107.039625,35.34 C107.039625,33.94 107.039625,32.54 106.899314,31 L109.424896,31 L109.565206,33.1 C110.547376,31.56 111.950477,30.72 113.914818,30.72 Z M154.183811,30.58 C156.148152,30.58 157.691562,31.28 158.814043,32.54 C159.796214,33.8 160.357454,35.34 160.357454,37.3 C160.357454,39.26 159.796214,40.94 158.673733,42.2 C157.410942,43.46 155.867531,44.16 153.90319,44.16 C151.938849,44.16 150.395438,43.46 149.272958,42.2 C148.150477,40.94 147.589237,39.4 147.589237,37.44 C147.589237,35.48 148.150477,33.8 149.413268,32.54 C150.535749,31.28 152.219469,30.58 154.183811,30.58 Z M177.194663,30.58 C179.018694,30.58 180.562105,31.28 181.403966,32.68 C182.386136,33.8 182.666756,35.2 182.666756,36.74 C182.666756,37.3 182.666756,37.72 182.526446,38 L173.827221,38 C173.827221,39.26 174.248152,40.24 175.090012,40.94 C175.791562,41.5 176.773733,41.92 177.896214,41.92 C179.159004,41.92 180.421795,41.78 181.403966,41.36 L181.824896,43.32 C180.562105,43.88 179.159004,44.16 177.475283,44.16 C175.510942,44.16 173.827221,43.6 172.704741,42.34 C171.58226,41.22 171.02102,39.54 171.02102,37.58 C171.02102,35.62 171.58226,33.94 172.564431,32.68 C173.686911,31.28 175.230322,30.58 177.194663,30.58 Z M131.734198,25.68 C133.417919,25.68 134.68071,25.96 135.80319,26.52 L135.10164,28.9 C134.119469,28.34 132.996989,28.06 131.593888,28.06 C130.611718,28.06 129.769857,28.34 129.208617,28.76 C128.787687,29.18 128.507066,29.74 128.507066,30.44 C128.507066,31.14 128.787687,31.7 129.348927,32.26 C129.769857,32.68 130.752028,33.1 132.014818,33.66 C133.558229,34.22 134.68071,35.06 135.52257,35.9 C135.9435,36.6 136.364431,37.58 136.364431,38.84 C136.364431,40.38 135.80319,41.64 134.82102,42.62 C133.698539,43.74 132.014818,44.16 129.910167,44.16 C127.945826,44.16 126.402415,43.74 125.279935,43.04 L125.981485,40.66 C127.244276,41.36 128.647376,41.78 130.190787,41.78 C131.313268,41.78 132.155128,41.5 132.716369,41.08 C133.277609,40.52 133.558229,39.96 133.558229,39.12 C133.558229,38.42 133.277609,37.72 132.856679,37.3 C132.295438,36.74 131.453578,36.32 130.331097,35.9 C127.103966,34.78 125.560555,32.96 125.560555,30.72 C125.560555,29.18 126.121795,28.06 127.244276,27.08 C128.366756,26.1 129.769857,25.68 131.734198,25.68 Z M142.678384,27.64 L142.678384,30.86 L145.905516,30.86 L145.905516,33.1 L142.678384,33.1 L142.678384,39.4 C142.678384,40.94 143.239625,41.78 144.362105,41.78 C144.923345,41.78 145.344276,41.78 145.624896,41.64 L145.765206,43.88 C145.203966,44.16 144.502415,44.16 143.520245,44.16 C142.397764,44.16 141.415593,43.88 140.854353,43.18 C140.152803,42.48 139.872183,41.36 139.872183,39.68 L139.872183,33.1 L137.907842,33.1 L137.907842,30.86 L139.872183,30.86 L139.872183,28.48 L142.678384,27.64 Z M83.8884617,25.82 L89.5008648,43.88 L86.4140431,43.88 L84.7303222,38.56 L78.8372989,38.56 L77.2938881,43.88 L74.3473764,43.88 L80.2403997,25.82 L83.8884617,25.82 Z M169.617919,30.44 L169.617376,33.369 C169.380171,33.3372222 169.126834,33.24 168.776059,33.24 C167.793888,33.24 166.952028,33.66 166.390787,34.36 C165.969857,35.06 165.689237,35.9 165.689237,36.88 L165.689237,43.74 L162.742725,43.74 L162.742725,34.78 C162.742725,33.24 162.742725,31.98 162.602415,30.72 L165.127997,30.72 L165.268307,33.24 L165.408617,33.24 C165.689237,32.4 166.250477,31.7 166.811718,31.14 C167.513268,30.72 168.214818,30.44 168.916369,30.44 L169.617919,30.44 L169.617919,30.44 Z M153.76288,32.82 C152.6404,32.82 151.658229,33.38 151.096989,34.36 C150.535749,35.2 150.255128,36.32 150.255128,37.44 C150.255128,38.7 150.535749,39.68 151.096989,40.52 C151.658229,41.5 152.6404,42.06 153.76288,42.06 C154.885361,42.06 155.727221,41.5 156.428772,40.52 C156.990012,39.68 157.270632,38.56 157.270632,37.44 C157.270632,36.18 156.990012,35.2 156.428772,34.36 C155.867531,33.38 154.885361,32.82 153.76288,32.82 Z M98.2000896,32.96 C97.4985392,32.96 96.7969888,33.24 96.2357485,33.66 C95.6745082,34.08 95.253578,34.78 95.1132679,35.48 C94.9904966,35.8475 94.9751502,36.1078125 94.9732319,36.2609375 L94.9729578,38.56 C94.9729578,39.54 95.253578,40.24 95.8148183,40.94 C96.3760586,41.64 97.2179191,41.92 98.0597795,41.92 C99.1822602,41.92 100.024121,41.5 100.585361,40.66 C101.286911,39.82 101.567531,38.7 101.567531,37.3 C101.567531,36.04 101.286911,34.92 100.725671,34.22 C100.164431,33.38 99.3225702,32.96 98.2000896,32.96 Z M113.213268,32.96 C112.511718,32.96 111.810167,33.24 111.248927,33.66 C110.687687,34.08 110.266756,34.78 110.126446,35.48 C109.986136,35.9 109.986136,36.18 109.986136,36.32 L109.986136,38.56 C109.986136,39.54 110.266756,40.24 110.827997,40.94 C111.389237,41.64 112.231097,41.92 113.072958,41.92 C114.195438,41.92 115.037299,41.5 115.598539,40.66 C116.30009,39.82 116.58071,38.7 116.58071,37.3 C116.58071,36.04 116.30009,34.92 115.738849,34.22 C115.177609,33.38 114.335749,32.96 113.213268,32.96 Z M81.6435005,28.2 C81.5031904,28.9 81.2225702,30.16 80.80164,31.56 L79.2582292,36.32 L84.1690819,36.32 L82.625671,31.56 C82.4931559,31.1633333 82.2354877,30.0174074 81.7344662,28.4760391 L81.6435005,28.2 Z M177.194663,32.54 C176.212493,32.54 175.510942,32.96 174.949702,33.66 C174.528772,34.22 174.248152,35.06 174.107842,35.9 L179.998376,35.9 L179.996515,35.79206 C179.969997,35.06 179.818462,34.43 179.439625,33.8 C178.878384,32.96 178.176834,32.54 177.194663,32.54 Z" id="Combined-Shape" fill="#FFFFFF" fill-rule="nonzero"></path>
                <path d="M88.097764,12.8 C89.0799346,12.8 89.781485,13.08 90.3427253,13.78 C90.9039656,14.34 91.1845857,15.18 91.1845857,16.16 C91.1845857,17.14 90.9039656,17.98 90.3427253,18.54 C89.781485,19.24 88.9396245,19.52 87.957454,19.52 C86.9752834,19.52 86.273733,19.24 85.7124927,18.54 C85.1512524,17.98 84.8706323,17.14 84.8706323,16.16 C84.8706323,15.18 85.1512524,14.34 85.7124927,13.78 C86.273733,13.08 87.1155935,12.8 88.097764,12.8 Z M118.545051,12.8 C119.527221,12.8 120.228772,13.08 120.790012,13.78 C121.351252,14.34 121.631873,15.18 121.631873,16.16 C121.631873,17.14 121.351252,17.98 120.790012,18.54 C120.228772,19.24 119.386911,19.52 118.404741,19.52 C117.42257,19.52 116.72102,19.24 116.15978,18.54 C115.598539,17.98 115.317919,17.14 115.317919,16.16 C115.317919,15.18 115.598539,14.34 116.15978,13.78 C116.72102,13.22 117.56288,12.8 118.545051,12.8 Z M178.878384,12.94 C179.860555,12.94 180.562105,13.22 180.983035,13.92 C181.263656,14.34 181.403966,15.04 181.403966,15.88 L181.403966,16.58 L181.403966,16.58 L177.194663,16.58 C177.194663,17.28 177.475283,17.7 177.755904,17.98 C178.176834,18.26 178.597764,18.4 179.159004,18.4 C179.860555,18.4 180.421795,18.26 180.842725,18.12 L181.123345,19.1 C180.562105,19.38 179.860555,19.52 179.018694,19.52 C178.036524,19.52 177.194663,19.24 176.633423,18.68 C176.072183,18.12 175.791562,17.28 175.791562,16.3 C175.791562,15.32 176.072183,14.48 176.633423,13.92 C177.194663,13.22 177.896214,12.94 178.878384,12.94 Z M126.121795,12.8 C127.805516,12.8 128.647376,13.64 128.647376,15.46 L128.647376,17.84 C128.507066,18.54 128.507066,18.96 128.507066,19.38 L127.244276,19.38 L127.103966,18.68 C126.683035,19.24 125.981485,19.52 125.279935,19.52 C124.718694,19.52 124.157454,19.38 123.876834,18.96 C123.596214,18.54 123.315593,18.12 123.315593,17.7 C123.315593,16.86 123.596214,16.3 124.297764,15.88 C124.999314,15.46 125.841175,15.32 127.103966,15.32 L127.103966,15.18 C127.103966,14.34 126.683035,13.92 125.841175,13.92 C125.139625,13.92 124.718694,14.06 124.157454,14.34 L123.876834,13.36 C124.438074,12.94 125.139625,12.8 126.121795,12.8 Z M145.765206,12.8 C146.747376,12.8 147.448927,13.08 148.010167,13.78 C148.571407,14.34 148.852028,15.18 148.852028,16.16 C148.852028,17.14 148.571407,17.98 148.010167,18.54 C147.448927,19.24 146.607066,19.52 145.624896,19.52 C144.642725,19.52 143.941175,19.24 143.379935,18.54 C142.818694,17.98 142.538074,17.14 142.538074,16.16 C142.538074,15.18 142.818694,14.34 143.379935,13.78 C143.941175,13.08 144.783035,12.8 145.765206,12.8 Z M164.707066,11.4 L164.707066,12.94 L166.250477,12.94 L166.250477,14.06 L164.566756,14.06 L164.566756,17.14 C164.566756,17.98 164.847376,18.26 165.408617,18.26 L166.110167,18.26 L166.110167,18.26 L166.110167,19.38 C165.829547,19.52 165.408617,19.52 164.987687,19.52 C164.426446,19.52 164.005516,19.38 163.724896,18.96 C163.444276,18.68 163.303966,17.98 163.303966,17.28 L163.303966,14.06 L162.321795,14.06 L162.321795,12.94 L163.303966,12.94 L163.303966,11.82 L164.707066,11.4 Z M78.5566788,10.56 C80.1000896,10.56 81.2225702,10.84 82.0644307,11.54 C82.7659811,12.24 83.3272214,13.36 83.3272214,14.76 C83.3272214,16.3 82.9062912,17.56 81.9241206,18.4 C81.0822602,19.1 79.8194695,19.52 78.1357485,19.52 C77.2938881,19.52 76.5923377,19.52 76.0310974,19.38 L76.0310974,10.7 C76.7326478,10.56 77.5745082,10.56 78.5566788,10.56 Z M136.645051,10.14 L136.645051,19.38 L136.645051,19.38 L135.38226,19.38 L135.38226,18.4 C134.96133,19.24 134.25978,19.52 133.277609,19.52 C132.435749,19.52 131.874508,19.24 131.313268,18.68 C130.752028,18.12 130.611718,17.28 130.611718,16.3 C130.611718,15.32 130.892338,14.48 131.453578,13.78 C132.014818,13.22 132.716369,12.94 133.417919,12.94 C134.189625,12.94 134.725531,13.1752778 135.133713,13.6458333 L135.24195,13.78 L135.24195,10.14 L136.645051,10.14 Z M169.617919,10 L169.617919,13.92 C170.038849,13.22 170.7404,12.8 171.58226,12.8 C172.1435,12.8 172.704741,12.94 172.985361,13.36 C173.406291,13.78 173.686911,14.62 173.686911,15.46 L173.686911,19.38 L172.283811,19.38 L172.283811,15.74 C172.283811,14.62 171.86288,14.06 171.02102,14.06 C170.319469,14.06 169.898539,14.34 169.617919,15.04 L169.617919,19.38 L168.214818,19.38 L168.214818,10 L169.617919,10 Z M113.213268,10 L113.213268,19.38 L111.810167,19.38 L111.810167,10 L113.213268,10 Z M93.9907873,12.94 L94.6923377,16.02 L94.9028028,17.07 L94.9028028,17.07 L95.1132679,18.12 C95.253578,17.56 95.3938881,16.86 95.6745082,16.02 L96.5163687,12.94 L97.6388493,12.94 L98.4807098,15.88 C98.7145599,16.4633333 98.8509725,17.0466667 98.9711455,17.63 L99.0419501,17.98 C99.1822602,17.28 99.3225702,16.58 99.4628803,15.88 L100.304741,12.94 L101.988462,12.94 L100.024121,19.38 L98.7613299,19.38 L97.9194695,16.58 C97.6856193,15.9966667 97.5492068,15.4133333 97.4290338,14.83 L97.3582292,14.48 C97.2179191,15.18 97.077609,15.88 96.7969888,16.58 L95.9551284,19.38 L94.6923377,19.38 L92.5876865,12.94 L93.9907873,12.94 Z M107.039625,12.66 C107.600865,12.66 108.162105,12.8 108.583035,13.22 C109.144276,13.64 109.284586,14.34 109.284586,15.32 L109.284586,19.38 L107.881485,19.38 L107.881485,15.74 C107.881485,14.62 107.460555,14.06 106.618694,14.06 C106.197764,14.06 105.917144,14.2 105.636524,14.48 C105.355904,14.76 105.215593,15.18 105.215593,15.6 L105.215593,19.38 L103.812493,19.38 L103.812493,12.94 L103.812493,12.94 L105.075283,12.94 L105.075283,13.92 C105.215593,13.64 105.496214,13.36 105.776834,13.08 C106.197764,12.8 106.618694,12.66 107.039625,12.66 Z M154.324121,12.66 C154.885361,12.66 155.446601,12.8 155.867531,13.22 C156.428772,13.64 156.569082,14.34 156.569082,15.32 L156.569082,19.38 L155.165981,19.38 L155.165981,15.74 C155.165981,14.62 154.745051,14.06 153.90319,14.06 C153.48226,14.06 153.20164,14.2 152.92102,14.48 C152.6404,14.76 152.50009,15.18 152.50009,15.6 L152.50009,19.38 L151.096989,19.38 L151.096989,12.94 L151.096989,12.94 L152.35978,12.94 L152.35978,13.92 C152.50009,13.64 152.78071,13.36 153.06133,13.08 C153.48226,12.8 153.90319,12.66 154.324121,12.66 Z M133.698539,14.06 C133.137299,14.06 132.716369,14.34 132.435749,14.76 C132.155128,15.18 132.014818,15.74 132.014818,16.44 C132.014818,17.14 132.155128,17.56 132.435749,17.98 C132.716369,18.4 133.137299,18.68 133.698539,18.68 C134.119469,18.68 134.5404,18.54 134.82102,18.12 C135.10164,17.56 135.24195,17.14 135.24195,16.72 L135.24195,15.18 L135.24195,15.18 C135.10164,14.9 134.96133,14.62 134.68071,14.34 C134.40009,14.06 134.119469,14.06 133.698539,14.06 Z M88.097764,13.92 C87.5365237,13.92 87.1155935,14.2 86.8349733,14.62 C86.5543532,15.04 86.4140431,15.6 86.4140431,16.16 C86.4140431,16.72 86.5543532,17.28 86.8349733,17.7 C87.1155935,18.26 87.5365237,18.4 88.097764,18.4 C88.6590043,18.4 89.0799346,18.12 89.3605547,17.56 C89.6411749,17.28 89.781485,16.72 89.781485,16.16 C89.781485,15.6 89.6411749,15.04 89.3605547,14.62 C89.0799346,14.06 88.6590043,13.92 88.097764,13.92 Z M118.545051,13.92 C117.983811,13.92 117.56288,14.2 117.28226,14.62 C117.00164,15.04 116.86133,15.6 116.86133,16.16 C116.86133,16.72 117.00164,17.28 117.28226,17.7 C117.56288,18.26 117.983811,18.4 118.545051,18.4 C119.106291,18.4 119.527221,18.12 119.807842,17.56 C120.088462,17.28 120.228772,16.72 120.228772,16.16 C120.228772,15.6 120.088462,15.04 119.807842,14.62 C119.527221,14.06 119.106291,13.92 118.545051,13.92 Z M127.103966,16.16 C125.560555,16.16 124.718694,16.58 124.718694,17.42 C124.718694,17.7 124.859004,17.98 124.999314,18.12 C125.139625,18.26 125.420245,18.4 125.700865,18.4 C125.981485,18.4 126.262105,18.26 126.542725,18.12 C126.823345,17.98 126.963656,17.7 127.103966,17.42 L127.103966,16.16 Z M145.624896,13.92 C145.063656,13.92 144.642725,14.2 144.362105,14.62 C144.081485,15.04 143.941175,15.6 143.941175,16.16 C143.941175,16.72 144.081485,17.28 144.362105,17.7 C144.642725,18.26 145.063656,18.4 145.624896,18.4 C146.186136,18.4 146.607066,18.12 146.887687,17.56 C147.168307,17.28 147.308617,16.72 147.308617,16.16 C147.308617,15.6 147.168307,15.04 146.887687,14.62 C146.607066,14.06 146.186136,13.92 145.624896,13.92 Z M78.5566788,11.54 C78.1357485,11.54 77.7148183,11.54 77.4341981,11.68 L77.4341981,18.26 L78.4163687,18.26 L78.4163687,18.26 C79.5388493,18.26 80.3807098,17.98 80.9419501,17.42 C81.5031904,16.86 81.7838106,15.88 81.7838106,14.76 C81.7838106,13.78 81.5031904,12.94 80.9419501,12.38 C80.3807098,11.82 79.5388493,11.54 78.5566788,11.54 Z M178.738074,13.78 C178.317144,13.78 177.896214,13.92 177.615593,14.34 C177.334973,14.62 177.194663,15.04 177.194663,15.46 L180.141175,15.46 C180.141175,15.04 180.000865,14.62 179.860555,14.34 C179.579935,13.92 179.299314,13.78 178.738074,13.78 Z" id="Combined-Shape" fill="#D6D6D6" fill-rule="nonzero"></path>
            </g>
        </g>
    </g>
</svg>