<svg xmlns="http://www.w3.org/2000/svg" width="144" height="135" viewBox="0 0 144 135"><g><g><g><path fill="none" stroke="#ffb1b2" stroke-miterlimit="20" stroke-width="3" d="M34.144 129.783v0S2 103.671 2 73.004c0-30.666 40.678-4.266 40.678-4.266v0s55.256 56.32 42.82 63.266c-12.437 6.947-33.887-19-36.154-63.266-2.266-44.266 13.389-50.934 33.228-19.2 19.84 31.733 14.99 40.889 5.903 30.044-9.088-10.844-21.076-34.71-7.93-58.996s50.402-21.39 62.284-9.348"/></g><g><path fill="#201d28" d="M71.197 68.73A13.05 13.05 0 0 0 58.13 81.797a13.05 13.05 0 0 0 13.067 13.066 13.05 13.05 0 0 0 13.066-13.066A13.05 13.05 0 0 0 71.197 68.73z"/></g><g><path fill="#fff" d="M71.067 83.756c-.93 0-1.69-.76-1.69-1.69 0-.928.76-1.688 1.69-1.688.929 0 1.689.76 1.689 1.689s-.76 1.689-1.69 1.689zm0-6.756C68.28 77 66 79.28 66 82.067c0 2.786 2.28 5.066 5.067 5.066 2.786 0 5.066-2.28 5.066-5.066 0-2.787-2.28-5.067-5.066-5.067z"/></g><g><path fill="#201d28" d="M72.332 53.086c.989 0 1.798-.8 1.798-1.778s-.81-1.778-1.798-1.778c-12.047 0-23.194 6.933-28.408 17.689-.45.889-.09 1.955.809 2.4.27.089.539.178.809.178.629 0 1.348-.356 1.618-.978 4.675-9.6 14.474-15.733 25.172-15.733z"/></g><g><path fill="#201d28" d="M72.367 61.988c.973 0 1.77-.762 1.77-1.694 0-.932-.797-1.694-1.77-1.694-8.405 0-16.28 4.659-19.907 11.944-.442.847-.088 1.863.797 2.287.265.084.53.169.796.169.708 0 1.327-.339 1.593-.932 3.096-6.099 9.643-10.08 16.721-10.08z"/></g><g><path fill="#201d28" d="M105.946 94.244c-.889-.355-1.778-.622-2.755-.71h-.711c-2.755 0-5.422 1.155-7.377 3.11-1.955-1.955-4.533-3.11-7.377-3.11h-.71c-3.467.266-6.311 2.4-7.378 5.688-1.155 3.378-.266 7.111 2.4 9.422l5.688 5.156c-4.8 2.311-10.043 3.556-15.642 3.556-20.175.088-36.528-16.267-36.528-36.356 0-20.089 16.353-36.444 36.439-36.444S108.435 60.91 108.435 81c0 4.711-.89 9.156-2.49 13.244zm-.08 11.823l-10.755 9.777-10.755-9.777c-1.867-1.69-1.956-4-1.423-5.69.711-1.955 2.311-3.2 4.267-3.377h.444c2.4 0 4.623 1.333 5.867 3.378.267.533.889.889 1.511.889.622 0 1.245-.356 1.511-.89A6.753 6.753 0 0 1 102.4 97h.444c2.045.089 3.645 1.422 4.267 3.378.711 1.689.622 4-1.244 5.689zm3.023-9.69C110.933 91.668 112 86.423 112 81c0-22.044-17.956-40-40-40S32 58.956 32 81s17.956 40 40 40c6.667 0 12.978-1.689 18.489-4.533l3.378 3.11c.355.267.8.445 1.155.445.356 0 .89-.178 1.156-.444l11.91-10.845c2.579-2.4 3.556-6.044 2.4-9.422-.266-1.155-.888-2.133-1.6-2.933z"/></g><g><path fill="#ffb1b2" d="M105.867 106.067l-10.756 9.777-10.756-9.777c-1.866-1.69-1.955-4-1.422-5.69.711-1.955 2.311-3.2 4.267-3.377h.444c2.4 0 4.623 1.333 5.867 3.378.267.533.889.889 1.511.889.622 0 1.245-.356 1.511-.89A6.753 6.753 0 0 1 102.4 97h.444c2.045.089 3.645 1.422 4.267 3.378.711 1.689.622 4-1.244 5.689z"/></g></g></g></svg>