<svg xmlns="http://www.w3.org/2000/svg" width="144" height="135" viewBox="0 0 144 135"><g><g><g><path fill="none" stroke="#ffb1b2" stroke-miterlimit="20" stroke-width="3" d="M109.685 5.34v0s32.144 26.111 32.144 56.778c0 30.667-40.677 4.267-40.677 4.267v0s-55.256-56.32-42.82-63.267c12.436-6.947 33.886 19.001 36.153 63.267 2.267 44.265-13.388 50.933-33.227 19.2-19.84-31.734-14.991-40.89-5.903-30.045 9.088 10.845 21.075 34.71 7.93 58.996-13.146 24.287-50.402 21.39-62.285 9.348"/></g><g><path fill="none" stroke="#201d28" stroke-miterlimit="20" stroke-width="4" d="M82.997 119.663c21.355 0 38.666-17.311 38.666-38.666 0-21.355-17.311-38.667-38.666-38.667-21.355 0-38.667 17.312-38.667 38.667s17.312 38.666 38.667 38.666z"/></g><g><g><path fill="#ffb1b2" d="M35.185 43.234c-2.866.276-5.085-.643-6.102-2.573-.74-1.379-.647-3.125.277-4.044l.185-.184c.832-.827 1.85-1.195 2.959-1.195.277 0 .462 0 .74.092.554.092 1.201-.092 1.57-.551.463-.46.648-1.011.556-1.563-.185-1.378.185-2.757 1.201-3.676l.185-.184c1.017-.827 2.681-1.01 4.068-.275 1.942 1.01 2.866 3.216 2.589 6.065l-.925 7.261zM36.946 90.2c-3.053 0-5.552-2.482-5.552-5.515 0-3.033 2.499-5.514 5.552-5.514 3.054 0 5.552 2.481 5.552 5.514 0 3.033-2.498 5.515-5.552 5.515zm42.527 11.028c-3.054 0-5.552-2.481-5.552-5.514 0-3.033 2.498-5.514 5.552-5.514 3.054 0 5.552 2.481 5.552 5.514 0 3.033-2.498 5.514-5.552 5.514zm22.645-49.445c-1.017 1.93-3.236 2.849-6.101 2.573l-7.304-.92-.832-7.26c-.277-2.849.647-5.055 2.589-6.066 1.386-.735 3.143-.643 4.067.276l.185.184c.925.919 1.387 2.298 1.202 3.676-.092.552.092 1.195.555 1.563.462.46 1.017.643 1.571.551 1.387-.184 2.774.184 3.698 1.195l.185.184c.74.919.925 2.573.185 4.044z"/></g><g><path fill="#201d28" d="M102.12 51.794c-1.017 1.932-3.236 2.851-6.102 2.575l-7.304-.92-.832-7.265c-.277-2.85.648-5.058 2.589-6.07 1.387-.735 3.143-.644 4.068.276l.185.184c.924.92 1.386 2.3 1.202 3.679-.093.552.092 1.195.554 1.563.462.46 1.017.644 1.572.552 1.387-.184 2.773.184 3.698 1.196l.185.184c.74.92.924 2.575.185 4.046zm-22.645 49.438c-3.054 0-5.552-2.482-5.552-5.515 0-3.032 2.498-5.514 5.552-5.514 3.053 0 5.551 2.482 5.551 5.514 0 3.033-2.498 5.515-5.551 5.515zM46.188 55.738v-9.099l38.828 10.11v9.099zm-9.245 34.465c-3.051 0-5.547-2.481-5.547-5.514 0-3.033 2.496-5.515 5.547-5.515 3.05 0 5.547 2.482 5.547 5.515 0 3.033-2.496 5.514-5.547 5.514zm-1.757-46.954c-2.866.276-5.085-.644-6.101-2.575-.74-1.38-.648-3.127.277-4.047l.185-.184c.832-.828 1.849-1.196 2.958-1.196.278 0 .462 0 .74.092.554.092 1.202-.092 1.571-.551.463-.46.648-1.012.555-1.564-.185-1.38.185-2.759 1.202-3.679l.185-.184c1.017-.827 2.68-1.011 4.068-.276 1.941 1.012 2.866 3.22 2.588 6.07l-.924 7.266zm69.43 2.012c-.093-.092-.185-.184-.278-.368-1.294-1.287-2.958-2.022-4.715-2.206-.184-1.746-1.016-3.4-2.218-4.687a1.275 1.275 0 0 0-.37-.276c-2.126-1.93-5.455-2.205-8.228-.735-3.328 1.654-4.992 5.33-4.53 9.742l.74 6.25-38.83-10.11.833-7.26c.462-4.412-1.295-8.088-4.53-9.743-2.774-1.378-6.102-1.102-8.228.736a1.275 1.275 0 0 1-.37.275c-1.294 1.287-2.034 2.941-2.219 4.688-1.756.183-3.42 1.01-4.715 2.205-.092.092-.185.184-.277.368-1.942 2.114-2.219 5.422-.74 8.18 1.48 2.94 4.623 4.595 8.413 4.595.462 0 .925 0 1.387-.092l6.841-.827v31.248c-1.571-1.195-3.42-1.838-5.547-1.838-5.085 0-9.245 4.136-9.245 9.19 0 5.056 4.16 9.191 9.245 9.191 5.085 0 9.245-4.135 9.245-9.19v-25.09L85.11 69.615v18.84c-1.572-1.194-3.42-1.837-5.547-1.837-5.085 0-9.245 4.135-9.245 9.19S74.477 105 79.562 105c5.085 0 9.245-4.136 9.245-9.19V57.208l6.934.827c.462.092.924.092 1.386.092 3.79 0 6.934-1.655 8.413-4.596 1.295-2.849 1.017-6.157-.924-8.271z"/></g></g></g></g></svg>