<?xml version="1.0" encoding="UTF-8"?>
<svg width="300px" height="140px" viewBox="0 0 300 140" version="1.1" xmlns="http://www.w3.org/2000/svg" xmlns:xlink="http://www.w3.org/1999/xlink">
    <title>google-play</title>
    <defs>
        <rect id="path-1" x="0" y="0" width="220" height="60" rx="30"></rect>
        <filter x="-29.5%" y="-91.7%" width="159.1%" height="316.7%" filterUnits="objectBoundingBox" id="filter-2">
            <feOffset dx="0" dy="10" in="SourceAlpha" result="shadowOffsetOuter1"></feOffset>
            <feGaussianBlur stdDeviation="20" in="shadowOffsetOuter1" result="shadowBlurOuter1"></feGaussianBlur>
            <feColorMatrix values="0 0 0 0 0.125490196   0 0 0 0 0.11372549   0 0 0 0 0.156862745  0 0 0 0.06 0" type="matrix" in="shadowBlurOuter1"></feColorMatrix>
        </filter>
        <linearGradient x1="32.1112514%" y1="-6.0957265%" x2="54.4520341%" y2="92.1559829%" id="linearGradient-3">
            <stop stop-color="#006884" offset="0%"></stop>
            <stop stop-color="#8AD1D0" offset="100%"></stop>
        </linearGradient>
        <linearGradient x1="-7.52792208%" y1="30.1920527%" x2="91.537013%" y2="70.9703577%" id="linearGradient-4">
            <stop stop-color="#24BBB6" offset="0%"></stop>
            <stop stop-color="#DBE692" offset="100%"></stop>
        </linearGradient>
        <linearGradient x1="49.9404255%" y1="105.754795%" x2="49.9404255%" y2="-3.12739726%" id="linearGradient-5">
            <stop stop-color="#FCC072" offset="0%"></stop>
            <stop stop-color="#F58A5B" offset="100%"></stop>
        </linearGradient>
        <linearGradient x1="11.1493421%" y1="89.5966371%" x2="90.4368421%" y2="27.8792014%" id="linearGradient-6">
            <stop stop-color="#712B8F" offset="0%"></stop>
            <stop stop-color="#EA1D27" offset="100%"></stop>
        </linearGradient>
    </defs>
    <g id="Page-1" stroke="none" stroke-width="1" fill="none" fill-rule="evenodd">
        <g id="Capital-Turk-01---Home" transform="translate(-570.000000, -2974.000000)">
            <g id="app-stores" transform="translate(358.000000, 3004.000000)">
                <g id="google-play" transform="translate(252.000000, 0.000000)">
                    <g id="Rectangle">
                        <use fill="black" fill-opacity="1" filter="url(#filter-2)" xlink:href="#path-1"></use>
                        <use fill="#201D28" fill-rule="evenodd" xlink:href="#path-1"></use>
                    </g>
                    <g id="Group" transform="translate(35.000000, 12.092683)">
                        <path d="M1.49213975e-13,15.8439024 L1.49213975e-13,1.50243902 C1.49213975e-13,0.682926829 0.682170543,2.13162821e-14 1.36434109,2.13162821e-14 C2.04651163,2.13162821e-14 2.31937984,0.136585366 2.72868217,0.409756098 L29.0604651,14.8878049 C29.6062016,15.1609756 29.8790698,15.5707317 29.8790698,15.9804878 C29.8790698,16.3902439 29.6062016,16.8 29.0604651,17.0731707 L2.72868217,31.5512195 C2.45581395,31.6878049 2.04651163,31.9609756 1.36434109,31.9609756 C0.682170543,31.9609756 1.49213975e-13,31.2780488 1.49213975e-13,30.4585366 L1.49213975e-13,15.8439024 Z" id="Path" fill="url(#linearGradient-3)"></path>
                        <path d="M17.0542636,15.9804878 L1.09147287,7.99360578e-15 C1.22790698,7.99360578e-15 1.22790698,7.99360578e-15 1.36434109,7.99360578e-15 C2.04651163,7.99360578e-15 2.31937984,0.136585366 2.72868217,0.409756098 L22.1023256,11.0634146 L17.0542636,15.9804878 Z" id="Path" fill="url(#linearGradient-4)"></path>
                        <path d="M21.9658915,20.7609756 L17.0542636,15.8439024 L22.1023256,10.7902439 L29.0604651,14.6146341 C29.6062016,14.8878049 29.8790698,15.297561 29.8790698,15.7073171 C29.8790698,16.1170732 29.6062016,16.5268293 29.0604651,16.8 L21.9658915,20.7609756 Z" id="Path" fill="url(#linearGradient-5)"></path>
                        <path d="M1.22790698,31.6878049 L1.22790698,31.6878049 L17.0542636,15.8439024 L21.9658915,20.7609756 L2.72868217,31.2780488 C2.31937984,31.5512195 2.04651163,31.6878049 1.22790698,31.6878049 C1.36434109,31.6878049 1.36434109,31.6878049 1.22790698,31.6878049 Z" id="Path" fill="url(#linearGradient-6)"></path>
                    </g>
                    <path d="M118.634109,47.4682927 C117.951938,46.9219512 117.406202,45.9658537 117.133333,45.4195122 L119.316279,44.4634146 C119.452713,44.7365854 119.725581,45.1463415 119.99845,45.5560976 C120.544186,46.102439 121.362791,46.6487805 122.181395,46.6487805 C123,46.6487805 123.955039,46.2390244 124.500775,45.5560976 C124.910078,44.8731707 125.182946,44.1902439 125.182946,43.2341463 L125.182946,42.4146341 C123.545736,44.4634146 120.134884,44.1902439 118.224806,42.004878 C116.178295,39.8195122 116.178295,36.1317073 118.224806,33.9463415 C120.271318,31.897561 123.272868,31.6243902 125.046512,33.5365854 C125.046512,33.5365854 125.046512,33.5365854 125.046512,33.5365854 L125.046512,32.5804878 L127.365891,32.5804878 L127.365891,42.8243902 C127.365891,45.4195122 126.410853,46.9219512 125.182946,47.8780488 C124.364341,48.5609756 123.136434,48.8341463 122.044961,48.8341463 C120.817054,48.697561 119.589147,48.2878049 118.634109,47.4682927 L118.634109,47.4682927 Z M175.8,48.0146341 L175.8,48.0146341 L178.11938,42.5512195 L174.026357,33.1268293 L176.345736,33.1268293 L179.210853,39.8195122 L182.075969,33.1268293 L184.395349,33.1268293 L178.11938,48.0146341 L175.8,48.0146341 L175.8,48.0146341 Z M164.748837,42.8243902 L164.748837,42.8243902 C164.066667,42.1414634 163.793798,41.1853659 163.793798,40.2292683 C163.793798,39.4097561 164.066667,38.5902439 164.612403,38.0439024 C165.567442,37.0878049 166.931783,36.6780488 168.432558,36.6780488 C169.387597,36.6780488 170.206202,36.8146341 170.888372,37.2243902 C170.888372,35.5853659 169.524031,34.902439 168.432558,34.902439 C167.477519,34.902439 166.522481,35.4487805 166.113178,36.404878 L164.066667,35.5853659 C164.475969,34.6292683 165.567442,32.8536585 168.296124,32.8536585 C169.660465,32.8536585 171.024806,33.2634146 171.843411,34.2195122 C172.662016,35.1756098 172.934884,36.2682927 172.934884,37.7707317 L172.934884,43.5073171 L170.615504,43.5073171 L170.615504,42.5512195 C170.342636,42.9609756 169.796899,43.2341463 169.387597,43.5073171 C168.84186,43.7804878 168.15969,43.9170732 167.477519,43.9170732 C166.658915,43.7804878 165.431008,43.5073171 164.748837,42.8243902 L164.748837,42.8243902 Z M92.0294574,37.9073171 L92.0294574,37.9073171 C92.0294574,35.1756098 94.075969,32.1707317 97.7596899,32.1707317 C101.306977,32.1707317 103.489922,35.1756098 103.489922,37.9073171 C103.489922,40.6390244 101.443411,43.6439024 97.7596899,43.6439024 C94.075969,43.6439024 92.0294574,40.6390244 92.0294574,37.9073171 L92.0294574,37.9073171 Z M104.308527,37.9073171 L104.308527,37.9073171 C104.308527,35.1756098 106.355039,32.1707317 110.03876,32.1707317 C113.586047,32.1707317 115.768992,35.1756098 115.768992,37.9073171 C115.768992,40.6390244 113.722481,43.6439024 110.03876,43.6439024 C106.491473,43.6439024 104.308527,40.6390244 104.308527,37.9073171 L104.308527,37.9073171 Z M76.6124031,40.9121951 L76.6124031,40.9121951 C73.2015504,37.497561 73.3379845,31.897561 76.7488372,28.3463415 C78.5224806,26.5707317 80.7054264,25.7512195 83.0248062,25.7512195 C85.2077519,25.7512195 87.3906977,26.5707317 89.027907,28.2097561 L87.3906977,29.9853659 C84.9348837,27.5268293 80.9782946,27.6634146 78.6589147,30.1219512 C76.2031008,32.7170732 76.2031008,36.6780488 78.6589147,39.2731707 C81.1147287,41.8682927 85.2077519,42.004878 87.6635659,39.4097561 C88.4821705,38.5902439 88.7550388,37.497561 88.8914729,36.404878 L83.1612403,36.404878 L83.1612403,33.9463415 L91.2108527,33.9463415 C91.3472868,34.4926829 91.3472868,35.1756098 91.3472868,35.8585366 C91.3472868,37.9073171 90.5286822,39.9560976 89.1643411,41.3219512 C87.6635659,42.8243902 85.4806202,43.6439024 83.2976744,43.6439024 C80.8418605,43.5073171 78.3860465,42.6878049 76.6124031,40.9121951 L76.6124031,40.9121951 Z M134.324031,41.8682927 L134.324031,41.8682927 C132.277519,39.6829268 132.277519,35.995122 134.324031,33.6731707 C136.370543,31.4878049 139.781395,31.4878049 141.691473,33.6731707 C142.373643,34.3560976 142.782946,35.3121951 143.192248,36.2682927 L135.688372,39.4097561 C136.097674,40.3658537 137.052713,41.1853659 138.417054,41.1853659 C139.644961,41.1853659 140.463566,40.7756098 141.282171,39.5463415 L143.328682,40.9121951 L143.328682,40.9121951 C143.055814,41.1853659 142.782946,41.4585366 142.646512,41.7317073 C140.327132,44.0536585 136.370543,44.0536585 134.324031,41.8682927 L134.324031,41.8682927 Z M148.513178,43.5073171 L148.513178,43.5073171 L148.513178,28.3463415 L153.424806,28.3463415 C156.289922,28.3463415 158.609302,30.395122 158.609302,32.8536585 C158.609302,35.3121951 156.562791,37.3609756 153.970543,37.3609756 L150.968992,37.3609756 L150.968992,43.3707317 L148.513178,43.3707317 L148.513178,43.5073171 Z M159.973643,43.5073171 L159.973643,43.5073171 L159.973643,28.3463415 L162.293023,28.3463415 L162.293023,43.5073171 L159.973643,43.5073171 L159.973643,43.5073171 Z M129.139535,43.2341463 L129.139535,43.2341463 L129.139535,26.297561 L131.595349,26.297561 L131.595349,43.2341463 L129.139535,43.2341463 L129.139535,43.2341463 Z M170.751938,39 L170.751938,39 C170.206202,38.5902439 169.387597,38.4536585 168.568992,38.4536585 C166.931783,38.4536585 165.976744,39.2731707 165.976744,40.2292683 C165.976744,41.1853659 166.931783,41.7317073 167.886822,41.7317073 C169.251163,41.7317073 170.751938,40.6390244 170.751938,39 L170.751938,39 Z M100.897674,37.9073171 L100.897674,37.9073171 C100.897674,36.2682927 99.8062016,34.4926829 97.7596899,34.4926829 C95.7131783,34.4926829 94.6217054,36.2682927 94.6217054,37.9073171 C94.6217054,39.5463415 95.7131783,41.3219512 97.7596899,41.3219512 C99.6697674,41.3219512 100.897674,39.5463415 100.897674,37.9073171 L100.897674,37.9073171 Z M113.176744,37.9073171 L113.176744,37.9073171 C113.176744,36.2682927 112.085271,34.4926829 110.03876,34.4926829 C107.992248,34.4926829 106.900775,36.2682927 106.900775,37.9073171 C106.900775,39.5463415 107.992248,41.3219512 110.03876,41.3219512 C112.085271,41.3219512 113.176744,39.5463415 113.176744,37.9073171 L113.176744,37.9073171 Z M125.31938,38.8634146 L125.31938,38.8634146 C125.31938,38.7268293 125.31938,38.5902439 125.455814,38.4536585 C125.455814,38.4536585 125.455814,38.4536585 125.455814,38.4536585 C125.455814,38.3170732 125.455814,38.0439024 125.455814,37.9073171 C125.455814,37.7707317 125.455814,37.497561 125.455814,37.3609756 C125.455814,37.3609756 125.455814,37.2243902 125.455814,37.2243902 C125.455814,37.0878049 125.31938,36.8146341 125.31938,36.6780488 C124.910078,35.3121951 123.682171,34.3560976 122.454264,34.3560976 C120.817054,34.3560976 119.452713,35.995122 119.452713,37.7707317 C119.452713,39.6829268 120.817054,41.1853659 122.590698,41.1853659 C123.682171,41.3219512 124.773643,40.3658537 125.31938,38.8634146 L125.31938,38.8634146 Z M135.27907,37.6341463 L135.27907,37.6341463 L140.327132,35.4487805 C139.781395,34.4926829 138.962791,34.2195122 138.28062,34.2195122 C136.234109,34.3560976 135.006202,36.5414634 135.27907,37.6341463 L135.27907,37.6341463 Z M156.153488,32.9902439 L156.153488,32.9902439 C156.153488,31.6243902 155.062016,30.6682927 153.56124,30.6682927 L150.832558,30.6682927 L150.832558,35.4487805 L153.697674,35.4487805 C155.062016,35.4487805 156.153488,34.3560976 156.153488,32.9902439 Z" id="Shape" fill="#FFFFFF"></path>
                    <path d="M78.6589147,11 C80.1596899,11 81.1147287,11.6829268 81.7968992,12.6390244 L80.7054264,13.3219512 C80.296124,12.7756098 79.6139535,12.3658537 78.6589147,12.3658537 C77.1581395,12.3658537 76.0666667,13.4585366 76.0666667,15.097561 C76.0666667,16.7365854 77.1581395,17.8292683 78.6589147,17.8292683 C79.4775194,17.8292683 80.1596899,17.4195122 80.4325581,17.1463415 L80.4325581,15.9170732 L78.2496124,15.9170732 L78.2496124,14.6878049 L81.9333333,14.6878049 L81.9333333,17.5560976 C81.2511628,18.3756098 80.1596899,18.9219512 78.7953488,18.9219512 C76.475969,18.9219512 74.7023256,17.2829268 74.7023256,14.9609756 C74.7023256,12.502439 76.475969,11 78.6589147,11 Z M88.7550388,11.1365854 L88.7550388,12.3658537 L84.7984496,12.3658537 L84.7984496,14.2780488 L88.6186047,14.2780488 L88.6186047,15.5073171 L84.7984496,15.5073171 L84.7984496,17.6926829 L88.7550388,17.6926829 L88.7550388,18.9219512 L83.5705426,18.7853659 L83.5705426,11.1365854 L88.7550388,11.1365854 Z M117.951938,11 C120.271318,11 121.908527,12.6390244 121.908527,14.9609756 C121.908527,17.2829268 120.271318,18.9219512 117.951938,18.9219512 C115.632558,18.9219512 113.995349,17.1463415 113.995349,14.9609756 C113.995349,12.6390244 115.632558,11 117.951938,11 Z M96.2589147,11.1365854 L96.2589147,12.3658537 L93.9395349,12.3658537 L93.9395349,18.7853659 L92.5751938,18.7853659 L92.5751938,12.3658537 L90.255814,12.3658537 L90.255814,11.1365854 L96.2589147,11.1365854 Z M102.262016,11.1365854 L102.262016,18.7853659 L100.897674,18.7853659 L100.897674,18.7853659 L100.897674,11.1365854 L102.262016,11.1365854 Z M109.629457,11.1365854 L109.629457,12.3658537 L107.310078,12.3658537 L107.310078,18.7853659 L105.945736,18.7853659 L105.945736,12.3658537 L103.626357,12.3658537 L103.626357,11.1365854 L109.629457,11.1365854 Z M124.773643,11.1365854 L128.730233,16.4634146 L128.730233,11.1365854 L130.094574,11.1365854 L130.094574,18.7853659 L128.730233,18.7853659 L124.773643,13.3219512 L124.773643,18.7853659 L123.409302,18.7853659 L123.409302,11.1365854 L124.773643,11.1365854 Z M117.815504,12.2292683 C116.314729,12.2292683 115.223256,13.4585366 115.223256,14.9609756 C115.223256,16.6 116.178295,17.6926829 117.815504,17.6926829 C119.452713,17.6926829 120.407752,16.4634146 120.407752,14.9609756 C120.407752,13.3219512 119.452713,12.2292683 117.815504,12.2292683 Z" id="Combined-Shape" fill="#D6D6D6" fill-rule="nonzero"></path>
                </g>
            </g>
        </g>
    </g>
</svg>