<svg xmlns="http://www.w3.org/2000/svg" width="48" height="48" viewBox="0 0 48 48"><g><g><g><path fill="#903e91" d="M0 24C0 10.745 10.745 0 24 0s24 10.745 24 24-10.745 24-24 24S0 37.255 0 24z"/></g><g><path fill="#fff" d="M35.51 30.966a4.548 4.548 0 0 1-4.544 4.544H16.543A4.547 4.547 0 0 1 12 30.966V16.543A4.547 4.547 0 0 1 16.543 12h14.422a4.548 4.548 0 0 1 4.544 4.543zm-11.761-3.084a4.14 4.14 0 0 0 4.134-4.133c0-.9-.294-1.73-.781-2.41a4.128 4.128 0 0 0-3.35-1.723c-1.38 0-2.6.682-3.353 1.723a4.113 4.113 0 0 0-.781 2.409 4.135 4.135 0 0 0 4.13 4.134zm9.04-9.19v-3.985l-.518.002-3.467.01.013 3.986zm-2.605 5.062a6.438 6.438 0 0 1-6.43 6.43 6.437 6.437 0 0 1-6.428-6.43c0-.853.17-1.668.473-2.412h-3.51v9.624a2.252 2.252 0 0 0 2.253 2.251h14.423a2.254 2.254 0 0 0 2.252-2.25v-9.625h-3.51c.305.744.477 1.56.477 2.412z"/></g></g></g></svg>