<?xml version="1.0" encoding="UTF-8"?>
<svg width="300px" height="140px" viewBox="0 0 300 140" version="1.1" xmlns="http://www.w3.org/2000/svg" xmlns:xlink="http://www.w3.org/1999/xlink">
    <title>app-store</title>
    <defs>
        <rect id="path-1" x="0" y="0" width="220" height="60" rx="30"></rect>
        <filter x="-29.5%" y="-91.7%" width="159.1%" height="316.7%" filterUnits="objectBoundingBox" id="filter-2">
            <feOffset dx="0" dy="10" in="SourceAlpha" result="shadowOffsetOuter1"></feOffset>
            <feGaussianBlur stdDeviation="20" in="shadowOffsetOuter1" result="shadowBlurOuter1"></feGaussianBlur>
            <feColorMatrix values="0 0 0 0 0.125490196   0 0 0 0 0.11372549   0 0 0 0 0.156862745  0 0 0 0.06 0" type="matrix" in="shadowBlurOuter1"></feColorMatrix>
        </filter>
    </defs>
    <g id="Page-1" stroke="none" stroke-width="1" fill="none" fill-rule="evenodd">
        <g id="Capital-Turk-01---Home" transform="translate(-822.000000, -2974.000000)">
            <g id="app-stores" transform="translate(358.000000, 3004.000000)">
                <g id="app-store" transform="translate(504.000000, 0.000000)">
                    <g id="Rectangle">
                        <use fill="black" fill-opacity="1" filter="url(#filter-2)" xlink:href="#path-1"></use>
                        <use fill="#201D28" fill-rule="evenodd" xlink:href="#path-1"></use>
                    </g>
                    <g id="tunein-inc-vector-logo" transform="translate(43.000000, 18.000000)" fill="#14D8CC" fill-rule="nonzero">
                        <path d="M49.0143396,5.73283019 C49.0143396,5.61509434 48.914717,5.5154717 48.7969811,5.5154717 L47.7101887,5.5154717 C47.5924528,5.5154717 47.4928302,5.61509434 47.4928302,5.73283019 L47.4928302,9.81735849 C47.4928302,9.88075472 47.4203774,9.90792453 47.3932075,9.8354717 L45.9079245,5.70566038 C45.8716981,5.60603774 45.7992453,5.50641509 45.6362264,5.50641509 L44.3411321,5.50641509 C44.2233962,5.50641509 44.1237736,5.60603774 44.1237736,5.72377358 L44.1237736,12.8966038 C44.1237736,13.0143396 44.2233962,13.1139623 44.3411321,13.1139623 L45.4279245,13.1139623 C45.5456604,13.1139623 45.645283,13.0143396 45.645283,12.8966038 L45.645283,9.14716981 C45.645283,9.08377358 45.7177358,9.05660377 45.7449057,9.1290566 L47.2211321,12.9418868 C47.2573585,13.0324528 47.3298113,13.1230189 47.5109434,13.1230189 L48.7969811,13.1230189 C48.914717,13.1230189 49.0143396,13.0233962 49.0143396,12.9056604 L49.0143396,5.73283019 L49.0143396,5.73283019 Z M42.9192453,11.8732075 C42.9192453,11.7554717 42.8196226,11.6558491 42.7018868,11.6558491 L41.7781132,11.6558491 C41.714717,11.6558491 41.669434,11.610566 41.669434,11.5471698 L41.669434,7.09132075 C41.669434,7.02792453 41.714717,6.98264151 41.7781132,6.98264151 L42.5932075,6.98264151 C42.7109434,6.98264151 42.810566,6.88301887 42.810566,6.76528302 L42.810566,5.73283019 C42.810566,5.61509434 42.7109434,5.5154717 42.5932075,5.5154717 L39.2241509,5.5154717 C39.1064151,5.5154717 39.0067925,5.61509434 39.0067925,5.73283019 L39.0067925,6.76528302 C39.0067925,6.88301887 39.1064151,6.98264151 39.2241509,6.98264151 L40.0392453,6.98264151 C40.1026415,6.98264151 40.1479245,7.02792453 40.1479245,7.09132075 L40.1479245,11.5471698 C40.1479245,11.610566 40.1026415,11.6558491 40.0392453,11.6558491 L39.1154717,11.6558491 C38.9977358,11.6558491 38.8981132,11.7554717 38.8981132,11.8732075 L38.8981132,12.9056604 C38.8981132,13.0233962 38.9977358,13.1230189 39.1154717,13.1230189 L42.7018868,13.1230189 C42.8196226,13.1230189 42.9192453,13.0233962 42.9192453,12.9056604 L42.9192453,11.8732075 L42.9192453,11.8732075 Z M33.1924528,7.14566038 L1.81132075,7.14566038 C1.73886792,7.14566038 1.6754717,7.2090566 1.6754717,7.28150943 L1.6754717,22.2249057 C1.6754717,22.2973585 1.73886792,22.3607547 1.81132075,22.3607547 L33.0566038,22.3607547 C33.1290566,22.3607547 33.1924528,22.2973585 33.1924528,22.2249057 L33.1924528,7.14566038 Z M54.3849057,0.896603774 L54.3849057,17.7418868 C54.3849057,18.194717 54.0226415,18.5569811 53.5698113,18.5569811 L34.8226415,18.5569811 L34.8226415,23.1758491 C34.8226415,23.6286792 34.4603774,23.9909434 34.0075472,23.9909434 L0.860377358,23.9909434 C0.40754717,23.9909434 0.0452830189,23.6286792 0.0452830189,23.1758491 L0.0452830189,6.33056604 C0.0452830189,5.87773585 0.40754717,5.5154717 0.860377358,5.5154717 L33.1924528,5.5154717 L33.1924528,0.896603774 C33.1924528,0.443773585 33.554717,0.081509434 34.0075472,0.081509434 L53.5698113,0.081509434 C54.0135849,0.081509434 54.3849057,0.452830189 54.3849057,0.896603774 Z M28.3743396,17.0354717 L25.8022642,17.0354717 C25.7388679,17.0354717 25.6935849,16.9901887 25.6935849,16.9267925 L25.6935849,15.6226415 C25.6935849,15.5592453 25.7388679,15.5139623 25.8022642,15.5139623 L28.2475472,15.5139623 C28.365283,15.5139623 28.4649057,15.4143396 28.4649057,15.2966038 L28.4649057,14.2098113 C28.4649057,14.0920755 28.365283,13.9924528 28.2475472,13.9924528 L25.8022642,13.9924528 C25.7388679,13.9924528 25.6935849,13.9471698 25.6935849,13.8837736 L25.6935849,12.5796226 C25.6935849,12.5162264 25.7388679,12.4709434 25.8022642,12.4709434 L28.3381132,12.4709434 C28.4558491,12.4709434 28.5554717,12.3713208 28.5554717,12.2535849 L28.5554717,11.1667925 C28.5554717,11.0490566 28.4558491,10.949434 28.3381132,10.949434 L24.389434,10.949434 C24.2716981,10.949434 24.1720755,11.0490566 24.1720755,11.1667925 L24.1720755,18.3396226 C24.1720755,18.4573585 24.2716981,18.5569811 24.389434,18.5569811 L28.3743396,18.5569811 C28.4920755,18.5569811 28.5916981,18.4573585 28.5916981,18.3396226 L28.5916981,17.2528302 C28.5916981,17.1350943 28.4920755,17.0354717 28.3743396,17.0354717 Z M22.7411321,10.949434 L21.6543396,10.949434 C21.5366038,10.949434 21.4369811,11.0490566 21.4369811,11.1667925 L21.4369811,15.2513208 C21.4369811,15.314717 21.3645283,15.3418868 21.3373585,15.269434 L19.8520755,11.1396226 C19.8158491,11.04 19.7433962,10.9403774 19.5803774,10.9403774 L18.2943396,10.9403774 C18.1766038,10.9403774 18.0769811,11.04 18.0769811,11.1577358 L18.0769811,18.330566 C18.0769811,18.4483019 18.1766038,18.5479245 18.2943396,18.5479245 L19.3811321,18.5479245 C19.4988679,18.5479245 19.5984906,18.4483019 19.5984906,18.330566 L19.5984906,14.5811321 C19.5984906,14.5177358 19.6709434,14.490566 19.6981132,14.5630189 L21.1743396,18.3758491 C21.210566,18.4664151 21.2830189,18.5569811 21.4641509,18.5569811 L22.7501887,18.5569811 C22.8679245,18.5569811 22.9675472,18.4573585 22.9675472,18.3396226 L22.9675472,11.1667925 C22.9584906,11.0490566 22.8679245,10.949434 22.7411321,10.949434 Z M16.6188679,10.949434 L15.5230189,10.949434 C15.405283,10.949434 15.3056604,11.0490566 15.3056604,11.1667925 L15.3056604,16.274717 C15.3056604,16.754717 14.9162264,17.1441509 14.2550943,17.1441509 C13.6120755,17.1441509 13.2226415,16.754717 13.2226415,16.274717 L13.2226415,11.1667925 C13.2226415,11.0490566 13.1230189,10.949434 13.005283,10.949434 L11.909434,10.949434 C11.7916981,10.949434 11.6920755,11.0490566 11.6920755,11.1667925 L11.6920755,16.274717 C11.6920755,17.5879245 12.7788679,18.674717 14.2550943,18.674717 C15.7584906,18.674717 16.845283,17.5879245 16.845283,16.274717 L16.845283,11.1667925 C16.8362264,11.0490566 16.7366038,10.949434 16.6188679,10.949434 Z M10.6415094,11.1667925 L10.6415094,12.2535849 C10.6415094,12.3713208 10.5418868,12.4709434 10.4241509,12.4709434 L9.06566038,12.4709434 C9.00226415,12.4709434 8.95698113,12.5162264 8.95698113,12.5796226 L8.95698113,18.3396226 C8.95698113,18.4573585 8.85735849,18.5569811 8.73962264,18.5569811 L7.65283019,18.5569811 C7.53509434,18.5569811 7.4354717,18.4573585 7.4354717,18.3396226 L7.4354717,12.5796226 C7.4354717,12.5162264 7.39018868,12.4709434 7.32679245,12.4709434 L5.96830189,12.4709434 C5.85056604,12.4709434 5.7509434,12.3713208 5.7509434,12.2535849 L5.7509434,11.1667925 C5.7509434,11.0490566 5.85056604,10.949434 5.96830189,10.949434 L10.4241509,10.949434 C10.5418868,10.949434 10.6415094,11.0490566 10.6415094,11.1667925 L10.6415094,11.1667925 Z" id="TuneIn_Marquee"></path>
                    </g>
                    <text id="Listen-on" font-family="SFProDisplay-Medium, SF Pro Display" font-size="14" font-weight="400" fill="#D6D6D6">
                        <tspan x="110" y="23">Listen on</tspan>
                    </text>
                    <text id="Tune-In" font-family="SFProDisplay-Bold, SF Pro Display" font-size="20" font-weight="bold" fill="#FFFFFF">
                        <tspan x="110" y="45">Tune In</tspan>
                    </text>
                </g>
            </g>
        </g>
    </g>
</svg>