<svg xmlns="http://www.w3.org/2000/svg" width="36" height="36" viewBox="0 0 36 36"><g><g><g><path fill="#4caf50" d="M18.005 0h-.01C8.072 0 0 8.073 0 18c0 3.938 1.269 7.587 3.427 10.55l-2.244 6.687 6.92-2.212A17.844 17.844 0 0 0 18.004 36C27.928 36 36 27.925 36 18S27.93 0 18.005 0z"/></g><g><path fill="#fafafa" d="M28.422 25.246c-.43 1.223-2.14 2.238-3.505 2.534-.933.2-2.152.36-6.255-1.351-5.248-2.186-8.628-7.55-8.891-7.897-.253-.348-2.121-2.84-2.121-5.417s1.301-3.832 1.826-4.37c.43-.443 1.143-.645 1.826-.645.221 0 .42.011.598.02.525.023.788.054 1.134.887.431 1.044 1.48 3.62 1.605 3.886.128.265.255.624.076.972-.167.359-.314.518-.578.824-.263.305-.513.538-.777.866-.24.285-.513.59-.21 1.118.304.516 1.353 2.238 2.898 3.62 1.994 1.786 3.61 2.356 4.188 2.598.43.18.944.137 1.259-.2.4-.433.893-1.151 1.395-1.858.357-.508.808-.57 1.282-.391.482.168 3.033 1.437 3.558 1.7.525.264.87.39.998.612.125.222.125 1.266-.306 2.492z"/></g></g></g></svg>