<svg xmlns="http://www.w3.org/2000/svg" width="48" height="48" viewBox="0 0 48 48"><g><g><g><path fill="#df4748" d="M0 24C0 10.745 10.745 0 24 0s24 10.745 24 24-10.745 24-24 24S0 37.255 0 24z"/></g><g><path fill="#fff" d="M36.487 19.17s-.25-1.804-1.016-2.597c-.972-1.043-2.062-1.048-2.56-1.108-3.578-.265-8.944-.265-8.944-.265h-.011s-5.366 0-8.943.265c-.5.06-1.589.065-2.562 1.108-.766.793-1.015 2.596-1.015 2.596s-.256 2.117-.256 4.234v1.985c0 2.117.256 4.234.256 4.234s.249 1.803 1.015 2.596c.973 1.043 2.25 1.01 2.82 1.119 2.044.2 8.69.263 8.69.263s5.372-.008 8.95-.273c.498-.061 1.588-.066 2.56-1.109.766-.793 1.016-2.596 1.016-2.596s.256-2.117.256-4.234v-1.985c0-2.117-.256-4.234-.256-4.234z"/></g><g><path fill="#df4748" d="M21.33 27.79v-7.35l6.907 3.688z"/></g></g></g></svg>